<svg width="44" height="44" viewBox="0 0 44 44" fill="none" xmlns="http://www.w3.org/2000/svg">
<path d="M22 25.6667C26.0501 25.6667 29.3333 22.3834 29.3333 18.3333C29.3333 14.2833 26.0501 11 22 11C17.9499 11 14.6667 14.2833 14.6667 18.3333C14.6667 22.3834 17.9499 25.6667 22 25.6667Z" stroke="#0C1727" stroke-width="2.75" stroke-linecap="round" stroke-linejoin="round"/>
<path d="M12.375 29.3333C13.9222 30.6772 15.7334 31.6826 17.6923 32.2849C19.6512 32.8872 21.7144 33.0731 23.7493 32.8307C25.7843 32.5882 27.7461 31.9228 29.5086 30.8771C31.2711 29.8314 32.7954 28.4285 33.9835 26.7587C35.1717 25.0889 35.9974 23.189 36.4076 21.1811C36.8179 19.1733 36.8035 17.1017 36.3656 15.0997C35.9277 13.0977 35.0758 11.2094 33.8647 9.55614C32.6536 7.9029 31.1101 6.52127 29.3333 5.50002" stroke="#0C1727" stroke-width="2.75" stroke-linecap="round" stroke-linejoin="round"/>
<path d="M22 33V40.3333" stroke="#0C1727" stroke-width="2.75" stroke-linecap="round" stroke-linejoin="round"/>
<path d="M14.6667 40.3333H29.3333" stroke="#0C1727" stroke-width="2.75" stroke-linecap="round" stroke-linejoin="round"/>
</svg>
